<svg width="184" height="48" viewBox="0 0 184 48" fill="none" xmlns="http://www.w3.org/2000/svg">
<path d="M11.3781 11.4044C13.8459 11.4044 16.1189 12.153 18.1971 13.6501H18.2556V11.4044H22.7951V35.8926C22.7951 40.2539 21.2495 43.6387 18.1582 46.0472C16.1969 47.3491 13.9368 48 11.3781 48V43.45C14.4824 43.45 16.5736 42.1025 17.6516 39.4076C18.0543 38.249 18.2556 37.0968 18.2556 35.9512V32.0065H18.1971C16.1449 33.5037 13.8849 34.2522 11.417 34.2522H11.2807C7.5659 34.2522 4.45512 32.6054 1.9483 29.3116C0.649434 27.2417 0 25.2238 0 23.2579V22.3987C0 19.808 1.01312 17.3409 3.03935 14.9976C5.40329 12.6021 8.18287 11.4044 11.3781 11.4044ZM4.53954 22.5549V23.1017C4.53954 25.0155 5.42277 26.7339 7.18923 28.2571C8.46212 29.2205 9.8584 29.7022 11.3781 29.7022C14.0797 29.7022 16.1709 28.3548 17.6516 25.6599C18.0543 24.5533 18.2556 23.6029 18.2556 22.8088C18.2556 20.843 17.4438 19.105 15.8202 17.5948C14.4824 16.5012 13.0017 15.9544 11.3781 15.9544C8.85828 15.9544 6.84503 17.1522 5.33835 19.5476C4.80581 20.6542 4.53954 21.6566 4.53954 22.5549Z" fill="#1C1C1C"/>
<path d="M24.7434 11.4434H29.283V19.45C29.3089 24.3971 30.6728 27.6452 33.3744 29.1945C34.2446 29.559 35.0564 29.7413 35.8098 29.7413H36.1215C37.7191 29.7413 39.2648 29.0578 40.7585 27.6908C41.7586 26.5712 42.408 25.2693 42.7068 23.7852C42.9406 22.939 43.0575 21.3767 43.0575 19.0985V11.4434H47.5775V18.786C47.5775 22.6135 47.2333 25.3019 46.5449 26.8511C46.1293 27.9186 45.5448 28.9666 44.7914 29.9951C43.3627 31.8698 41.317 33.1847 38.6543 33.9398C37.862 34.1741 37.0957 34.2913 36.3553 34.2913H35.576C33.3939 34.2913 31.3157 33.5102 29.3414 31.9479C26.2761 29.2531 24.7434 25.0024 24.7434 19.1961V11.4434Z" fill="#1C1C1C"/>
<path d="M49.5258 11.4434H54.0654V14.0407H54.1238C56.5397 12.3092 59.5596 11.4434 63.1834 11.4434V15.9935C58.7932 15.9935 55.9357 17.5297 54.6109 20.6021C54.2472 21.5004 54.0654 22.3336 54.0654 23.1017V34.2913H49.5258V11.4434Z" fill="#1C1C1C"/>
<path d="M65.1512 11.4434H69.6907V19.45C69.7167 24.3971 71.0805 27.6452 73.7822 29.1945C74.6524 29.559 75.4642 29.7413 76.2175 29.7413H76.5293C78.1269 29.7413 79.6725 29.0578 81.1662 27.6908C82.1664 26.5712 82.8158 25.2693 83.1145 23.7852C83.3483 22.939 83.4652 21.3767 83.4652 19.0985V11.4434H87.9853V18.786C87.9853 22.6135 87.6411 25.3019 86.9527 26.8511C86.537 27.9186 85.9526 28.9666 85.1992 29.9951C83.7705 31.8698 81.7247 33.1847 79.0621 33.9398C78.2698 34.1741 77.5034 34.2913 76.7631 34.2913H75.9837C73.8017 34.2913 71.7235 33.5102 69.7492 31.9479C66.6839 29.2531 65.1512 25.0024 65.1512 19.1961V11.4434Z" fill="#1C1C1C"/>
<path d="M108.189 0H112.729V34.2913H108.189V32.0456C106.072 33.5427 103.825 34.2913 101.448 34.2913H101.214C97.5385 34.2913 94.4407 32.6574 91.9209 29.3897C90.596 27.3328 89.9336 25.1522 89.9336 22.8478C89.9336 19.0985 91.5637 15.9675 94.8238 13.4548C96.8501 12.1139 99.0581 11.4434 101.448 11.4434C103.838 11.4434 106.066 12.192 108.131 13.6892H108.189V0ZM94.4731 22.8869C94.4731 25.3084 95.6031 27.2742 97.8632 28.7844C98.9282 29.4223 100.123 29.7413 101.448 29.7413C103.708 29.7413 105.591 28.6932 107.098 26.5972C107.826 25.4125 108.189 24.2278 108.189 23.0431V22.6916C108.189 20.5566 107.189 18.7274 105.189 17.2042C103.994 16.3971 102.682 15.9935 101.253 15.9935C99.0322 15.9935 97.1553 17.0285 95.6226 19.0985C94.8563 20.3092 94.4731 21.572 94.4731 22.8869Z" fill="#1C1C1C"/>
<path d="M126.153 11.4434C129.504 11.4434 132.394 12.7909 134.822 15.4858C136.615 17.751 137.511 20.205 137.511 22.8478C137.485 23.7071 137.407 24.4687 137.277 25.1326H119.665C120.223 26.812 121.34 28.1009 123.016 28.9992C124.003 29.4939 125.029 29.7413 126.094 29.7413C127.887 29.7413 129.504 29.0773 130.945 27.7494L134.121 30.9325V30.9911C131.822 33.1912 129.166 34.2913 126.153 34.2913H126.055C122.665 34.2913 119.769 32.9439 117.366 30.249C115.573 27.9967 114.677 25.5427 114.677 22.8869C114.677 19.502 116.021 16.5858 118.71 14.1383C120.892 12.3417 123.373 11.4434 126.153 11.4434ZM119.665 20.6021H132.523C132.017 19.0789 130.991 17.8291 129.445 16.8527C128.289 16.2799 127.159 15.9935 126.055 15.9935C123.639 15.9935 121.658 17.1587 120.113 19.489L119.665 20.6021Z" fill="#1C1C1C"/>
<path d="M146.96 11.4434H160.131V15.9935H146.96C145.726 15.9935 144.96 16.1953 144.661 16.5989C144.233 17.2107 144.018 17.8096 144.018 18.3954C144.018 19.4109 144.486 20.0944 145.421 20.4459L146.259 20.6021H152.357C156.046 20.6021 158.455 22.0146 159.585 24.8397C159.884 25.738 160.033 26.6233 160.033 27.4955C160.033 30.3076 158.787 32.3385 156.293 33.5883C155.28 34.057 154.331 34.2913 153.448 34.2913H139.576V29.7413H153.195C154.247 29.7413 154.961 29.2921 155.338 28.3938L155.494 27.4369C155.494 25.9007 154.565 25.1326 152.708 25.1326H146.123C144.395 25.1326 142.798 24.4687 141.33 23.1408C140.096 21.8389 139.479 20.2376 139.479 18.3369C139.479 16.6184 140.076 15.0236 141.271 13.5525C142.453 12.1465 144.35 11.4434 146.96 11.4434Z" fill="#1C1C1C"/>
<path d="M162.099 0H166.638V19.7429H166.697L176.458 11.4434H183.452V11.502L181.095 13.4548L170.087 22.8869L183.394 34.2913H176.419L166.638 25.9919V34.2913H162.099V0Z" fill="#1C1C1C"/>
</svg>
