<?xml version="1.0" encoding="utf-8"?>
<!-- Generator: Adobe Illustrator 22.1.0, SVG Export Plug-In . SVG Version: 6.00 Build 0)  -->
<svg version="1.1" id="Layer_1" xmlns="http://www.w3.org/2000/svg" xmlns:xlink="http://www.w3.org/1999/xlink" x="0px" y="0px"
	 viewBox="0 0 128 128" style="enable-background:new 0 0 128 128;" xml:space="preserve">
<style type="text/css">
	.st0{fill:#287aa3;}
	.st1{fill:#FFFFFF;}
</style>
<circle class="st0" cx="64" cy="64" r="64"/>
<g>
	<path class="st1" d="M61.1,26.1c5.5,0,10.7,1.7,15.3,5h0.1v-5h10.2V81c0,9.8-3.5,17.4-10.4,22.8c-4.4,2.9-9.5,4.4-15.2,4.4V98
		c7,0,11.7-3,14.1-9c0.9-2.6,1.4-5.2,1.4-7.8v-8.8h-0.1c-4.6,3.4-9.7,5-15.2,5h-0.3c-8.4,0-15.4-3.7-21-11.1
		c-2.9-4.7-4.4-9.2-4.4-13.6v-1.9c0-5.8,2.3-11.4,6.8-16.6C47.7,28.8,53.9,26.1,61.1,26.1z M45.7,51.2v1.2c0,4.3,2,8.2,6,11.6
		c2.9,2.2,6,3.2,9.4,3.2c6.1,0,10.8-3,14.1-9c0.9-2.5,1.4-4.6,1.4-6.4c0-4.4-1.8-8.3-5.5-11.7c-3-2.4-6.3-3.7-10-3.7
		c-5.7,0-10.2,2.7-13.6,8.1C46.3,46.9,45.7,49.1,45.7,51.2z"/>
</g>
</svg>
